<svg width="24" height="24" viewBox="0 0 24 24" fill="none" xmlns="http://www.w3.org/2000/svg">
<path d="M10.333 19.5H8.66699V17.833H7V16.167H5.33301V14.5H2V9.5H5.33301V7.83301H7V6.16699H8.66699V4.5H10.333V19.5ZM15.334 16.166H13.667V14.5H15.334V16.166ZM22 16.166H20.334V14.5H22V16.166ZM17 14.5H15.334V12.833H17V14.5ZM20.334 14.5H18.667V12.833H20.334V14.5ZM18.667 12.833H17V11.166H18.667V12.833ZM17 11.166H15.334V9.5H17V11.166ZM20.334 11.166H18.667V9.5H20.334V11.166ZM15.334 9.5H13.667V7.83301H15.334V9.5ZM22 9.5H20.334V7.83301H22V9.5Z" fill="#1C1915"/>
</svg>
