<svg width="24" height="24" viewBox="0 0 24 24" fill="none" xmlns="http://www.w3.org/2000/svg">
<path d="M17.667 15.333H19.333V17H22.667V18.667H19.333V20.333H17.667V22H12.667V20.333H11V15.333H12.667V13.667H17.667V15.333ZM14.333 17H12.667V18.667H14.333V20.333H16V18.667H17.667V17H16V15.333H14.333V17ZM9.33301 18.667H1V17H9.33301V18.667ZM11 3.66699H12.667V8.66699H11V10.333H6V8.66699H4.33301V7H1V5.33301H4.33301V3.66699H6V2H11V3.66699ZM7.66699 5.33301H6V7H7.66699V8.66699H9.33301V7H11V5.33301H9.33301V3.66699H7.66699V5.33301ZM22.667 7H14.333V5.33301H22.667V7Z" fill="#1C1915"/>
</svg>
