<svg width="24" height="24" viewBox="0 0 24 24" fill="none" xmlns="http://www.w3.org/2000/svg">
<path d="M8.25 19.5H7V18.25H5.75V17H4.5V15.75H5.75V14.5H3.25V13.25H2V10.75H3.25V9.5H5.75V8.25H4.5V7H5.75V5.75H7V4.5H8.25V5.75H9.5V3.25H10.75V2H13.25V3.25H14.5V5.75H15.75V4.5H17V5.75H18.25V7H19.5V8.25H18.25V9.5H20.75V10.75H22V13.25H20.75V14.5H18.25V15.75H19.5V17H18.25V18.25H17V19.5H15.75V18.25H14.5V20.75H13.25V22H10.75V20.75H9.5V18.25H8.25V19.5ZM10.75 10.75H9.5V13.25H10.75V14.5H13.25V13.25H14.5V10.75H13.25V9.5H10.75V10.75Z" fill="#1C1915"/>
</svg>
